<svg xmlns="http://www.w3.org/2000/svg" xmlns:svg="http://www.w3.org/2000/svg" id="Final" width="150" height="54" x="0" y="0" version="1.1" viewBox="0 0 749.377 263.83" xml:space="preserve"><metadata id="metadata11"/><style id="style2"/><path id="path4" d="m 156.8218,18.755031 -12.46,70.66 h -43.25 c -40.35,0 -78.81,32.689999 -85.94,73.039999 l -3.02,17.17 c -7.0900001,40.35 19.83,73.04 60.17,73.04 h 36.07 c 29.41,0 57.42,-23.81 62.59,-53.21 l 33.22,-188.319999 z m -30.69,174.029999 c -1.59,9.08 -9.77,16.48 -18.85,16.48 h -21.91 c -18.14,0 -30.27,-14.72 -27.09,-32.89 l 1.89,-10.71 c 3.22,-18.14 20.52,-32.89 38.66,-32.89 h 37.89 z m 363.77,59.87 28.38,-160.999999 h 44.89 l -28.38,160.999999 h -44.92 z m 4.85,-159.139999 c -2.25,12.769999 -4.51,25.539999 -6.76,38.309999 -21.27,-6.61 -43.21,-4.5 -49.95,-3.16 -7.28,41.34 -14.57,82.69 -21.86,124.03 h -44.92 c 6.1,-34.59 26.94,-152.719999 26.94,-152.719999 14.61,-6.05 50.49,-18.33 96.55,-6.46 z m -182.01,-4.13 h -34.94 c -34.05,0 -66.51,27.579999 -72.51,61.629999 l -7.06,40.02 c -6,34.05 16.71,61.63 50.76,61.63 h 74.33 l 7.63,-43.27 h -69.86 c -11.34,0 -18.93,-9.18 -16.91,-20.56 l 0.23,-1.36 h 112.62 l 6.43,-36.47 c 6,-34.05 -16.71,-61.629999 -50.76,-61.629999 h 0.04 z m 5.67,58.179999 -0.26,2.32 h -66.97 l 0.36,-2.06 c 2.02,-11.34 12.37,-21.32 23.74,-21.32 h 26.16 c 11.24,0.01 18.83,9.82 16.97,21.06 z m 374.99,-55.909999 h 44.92 c -15.3,40.689999 -50.37,109.889999 -84.34,160.999999 h -44.92 c -15.59,-48.64 -25.66,-116.4 -27.58,-160.999999 h 44.91 c 0.81,14.549999 7.32,68.499999 14.75,106.189999 20.38,-36.67 42.85,-84.78 52.22,-106.189999 z" style="fill:#ff444f"/></svg>